<svg xmlns="http://www.w3.org/2000/svg" width="650" height="300" viewBox="0 0 650 300"><defs><linearGradient id="paper" x2=".8" y2="1"><stop stop-color="#fff" stop-opacity=".98"/><stop offset="1" stop-color="#EDEBE8" stop-opacity=".78"/></linearGradient><linearGradient id="dark" x2="1" y2="1"><stop stop-color="#38423C"/><stop offset="1" stop-color="#101211"/></linearGradient><filter id="shadow" x="-40%" y="-40%" width="190%" height="210%"><feDropShadow dx="0" dy="10" stdDeviation="10" flood-color="#101211" flood-opacity=".13"/></filter></defs><path d="M150 180H530" fill="none" stroke="#2D6A4F" stroke-width="1.5" opacity=".7"/><circle cx="140" cy="180" r="7" fill="#2D6A4F"/><g transform="translate(85 55) rotate(-4 72.5 46)"><rect x="10" y="12" width="145" height="92" fill="#707973" opacity=".09"/><rect width="145" height="92" fill="url(#paper)" stroke="#fff" stroke-width=".8" filter="url(#shadow)"/><text x="15" y="32" fill="#1A1C1C" font-family="Georgia,serif" font-size="20">Credit line</text><text x="15" y="65" fill="#1A1C1C" font-family="Georgia,serif" font-size="15">Available</text></g><circle cx="280" cy="180" r="7" fill="#2D6A4F"/><g transform="translate(225 55) rotate(0 72.5 46)"><rect x="10" y="12" width="145" height="92" fill="#707973" opacity=".09"/><rect width="145" height="92" fill="url(#paper)" stroke="#fff" stroke-width=".8" filter="url(#shadow)"/><text x="15" y="32" fill="#1A1C1C" font-family="Georgia,serif" font-size="20">Draw</text><text x="15" y="65" fill="#1A1C1C" font-family="Georgia,serif" font-size="15">Recorded</text></g><circle cx="420" cy="180" r="7" fill="#2D6A4F"/><g transform="translate(365 55) rotate(4 72.5 46)"><rect x="10" y="12" width="145" height="92" fill="#707973" opacity=".09"/><rect width="145" height="92" fill="url(#paper)" stroke="#fff" stroke-width=".8" filter="url(#shadow)"/><text x="15" y="32" fill="#1A1C1C" font-family="Georgia,serif" font-size="20">Interest</text><text x="15" y="65" fill="#1A1C1C" font-family="Georgia,serif" font-size="15">Tracked</text></g></svg>